<svg xmlns="http://www.w3.org/2000/svg" xmlns:xlink="http://www.w3.org/1999/xlink" id="processonSvg1000" viewBox="17.0 14.0 665.0 280.0" width="665.0" height="280.0"><defs id="ProcessOnDefs1001"><marker id="ProcessOnMarker1015" markerUnits="userSpaceOnUse" orient="auto" markerWidth="16.23606797749979" markerHeight="10.550836550532098" viewBox="-1.0 -1.3763819204711736 16.23606797749979 10.550836550532098" refX="-1.0" refY="3.8990363547948754"><path id="ProcessOnPath1016" d="M12.0 3.8990363547948754L0.0 7.798072709589751V0.0Z" stroke="#323232" stroke-width="2.0" fill="#323232" transform="matrix(1.0,0.0,0.0,1.0,0.0,0.0)"/></marker><marker id="ProcessOnMarker1022" markerUnits="userSpaceOnUse" orient="auto" markerWidth="16.23606797749979" markerHeight="10.550836550532098" viewBox="-1.0 -1.3763819204711736 16.23606797749979 10.550836550532098" refX="-1.0" refY="3.8990363547948754"><path id="ProcessOnPath1023" d="M12.0 3.8990363547948754L0.0 7.798072709589751V0.0Z" stroke="#323232" stroke-width="2.0" fill="#323232" transform="matrix(1.0,0.0,0.0,1.0,0.0,0.0)"/></marker></defs><g id="ProcessOnG1002"><path id="ProcessOnPath1003" d="M17.0 14.0H682.0V294.0H17.0V14.0Z" fill="none"/><g id="ProcessOnG1004"><g id="ProcessOnG1005" transform="matrix(1.0,0.0,0.0,1.0,37.0,34.0)" opacity="1.0"><path id="ProcessOnPath1006" d="M0.0 0.0L211.0 0.0L211.0 120.0L0.0 120.0Z" stroke="#323232" stroke-width="2.0" stroke-dasharray="none" opacity="1.0" fill="#ffffff"/><g id="ProcessOnG1007" transform="matrix(1.0,0.0,0.0,1.0,10.0,48.75)"><text id="ProcessOnText1008" fill="#000000" font-size="18" x="94.5" y="18.45" font-family="Courier New" font-weight="bold" font-style="normal" text-decoration="none" family="Courier New" text-anchor="middle" size="18">Github</text></g></g><g id="ProcessOnG1009" transform="matrix(1.0,0.0,0.0,1.0,425.0,154.0)" opacity="1.0"><path id="ProcessOnPath1010" d="M0.0 0.0L237.0 0.0L237.0 120.0L0.0 120.0Z" stroke="#323232" stroke-width="2.0" stroke-dasharray="none" opacity="1.0" fill="#ffffff"/><g id="ProcessOnG1011" transform="matrix(1.0,0.0,0.0,1.0,10.0,48.75)"><text id="ProcessOnText1012" fill="#000000" font-size="18" x="107.5" y="18.45" font-family="Courier New" font-weight="bold" font-style="normal" text-decoration="none" family="Courier New" text-anchor="middle" size="18">Your Server</text></g></g><g id="ProcessOnG1013"><path id="ProcessOnPath1014" d="M425.0 214.0L142.5 214.0L142.5 169.2360679774998" stroke="#323232" stroke-width="2.0" stroke-dasharray="none" fill="none" marker-end="url(#ProcessOnMarker1015)"/><g id="ProcessOnG1017" transform="matrix(1.0,0.0,0.0,1.0,261.3680339887499,202.75)"><path id="ProcessOnPath1018" d="M0 0H132.0V22.5H0Z" fill="#fff" transform="matrix(1.0,0.0,0.0,1.0,-66.0,0.0)"/><text id="ProcessOnText1019" fill="#000000" font-size="18" x="0.0" y="18.45" font-family="Courier New" font-weight="bold" font-style="normal" text-decoration="none" family="Courier New" text-anchor="middle" size="18">2. Pull Repo</text></g></g><g id="ProcessOnG1020"><path id="ProcessOnPath1021" d="M248.0 94.0L543.5 94.0L543.5 138.7639320225002" stroke="#323232" stroke-width="2.0" stroke-dasharray="none" fill="none" marker-end="url(#ProcessOnMarker1022)"/><g id="ProcessOnG1024" transform="matrix(1.0,0.0,0.0,1.0,418.1319660112501,82.75)"><path id="ProcessOnPath1025" d="M0 0H198.00000000000006V22.5H0Z" fill="#fff" transform="matrix(1.0,0.0,0.0,1.0,-99.00000000000003,0.0)"/><text id="ProcessOnText1026" fill="#000000" font-size="18" x="0.0" y="18.45" font-family="Courier New" font-weight="bold" font-style="normal" text-decoration="none" family="Courier New" text-anchor="middle" size="18">1. Webhook Request</text></g></g></g></g></svg>